<svg width="1200" height="630" viewBox="0 0 1200 630" fill="none" xmlns="http://www.w3.org/2000/svg">
  <!-- Background -->
  <rect width="1200" height="630" fill="#2563eb"/>
  
  <!-- Pattern overlay -->
  <defs>
    <pattern id="grid" width="40" height="40" patternUnits="userSpaceOnUse">
      <path d="M 40 0 L 0 0 0 40" fill="none" stroke="#1e40af" stroke-width="1" opacity="0.3"/>
    </pattern>
  </defs>
  <rect width="1200" height="630" fill="url(#grid)"/>
  
  <!-- Main plug icon (centered, larger) -->
  <g transform="translate(600, 315)">
    <!-- Plug body -->
    <rect x="-120" y="-60" width="240" height="150" rx="8" fill="#ffffff" stroke="#050505" stroke-width="8"/>
    
    <!-- Plug prongs -->
    <rect x="-100" y="90" width="30" height="80" rx="4" fill="#2563eb" stroke="#050505" stroke-width="6"/>
    <rect x="70" y="90" width="30" height="80" rx="4" fill="#2563eb" stroke="#050505" stroke-width="6"/>
    
    <!-- Plug grip -->
    <rect x="-110" y="-80" width="220" height="30" rx="6" fill="#fbbf24" stroke="#050505" stroke-width="6"/>
    
    <!-- Cable -->
    <path d="M 0 -80 Q 0 -120 0 -160" stroke="#050505" stroke-width="12" stroke-linecap="round" fill="none"/>
    <path d="M 0 -160 Q 0 -180 -20 -190" stroke="#050505" stroke-width="8" stroke-linecap="round" fill="none"/>
    
    <!-- Energy sparks -->
    <circle cx="-60" cy="-20" r="6" fill="#fbbf24"/>
    <circle cx="60" cy="-20" r="6" fill="#fbbf24"/>
    <circle cx="-40" cy="20" r="4" fill="#fbbf24"/>
    <circle cx="40" cy="20" r="4" fill="#fbbf24"/>
    
    <!-- Connector details -->
    <rect x="-92" y="150" width="16" height="8" fill="#ffffff"/>
    <rect x="76" y="150" width="16" height="8" fill="#ffffff"/>
  </g>
  
  <!-- Text -->
  <text x="600" y="500" font-family="Arial, sans-serif" font-size="72" font-weight="bold" fill="#ffffff" text-anchor="middle" stroke="#050505" stroke-width="2">
    Plug It
  </text>
  <text x="600" y="550" font-family="Arial, sans-serif" font-size="32" fill="#fbbf24" text-anchor="middle" stroke="#050505" stroke-width="1">
    Bridge between Web3 apps and Farcaster wallet
  </text>
</svg>

